HIERARCHY
ROOT Hips
{
	OFFSET 0.000000 0.000000 0.000000
	CHANNELS 6 Xposition Yposition Zposition Xrotation Yrotation Zrotation
	JOINT LeftUpLeg_virtual
	{
		OFFSET 0.000000 0.000000 0.000000
		CHANNELS 3 Xrotation Yrotation Zrotation
		JOINT LeftUpLeg
		{
			OFFSET 10.205400 -3.823500 0.155100
			CHANNELS 3 Xrotation Yrotation Zrotation
			JOINT LeftLeg
			{
				OFFSET 0.708757 -12.982077 0.567790
				CHANNELS 3 Xrotation Yrotation Zrotation
				JOINT LeftFoot
				{
					OFFSET -0.708756 -10.717838 -2.184338
					CHANNELS 3 Xrotation Yrotation Zrotation
					JOINT LeftToeBase
					{
						OFFSET 0.108149 -7.191104 7.560241
						CHANNELS 3 Xrotation Yrotation Zrotation
						JOINT LeftToe_End
						{
							OFFSET 0.070230 0.081724 4.490308
							CHANNELS 3 Xrotation Yrotation Zrotation
							End Site
							{
								OFFSET 0 0 0
							}
						}
					}
				}
			}
		}
	}
	JOINT RightUpLeg_virtual
	{
		OFFSET 0.000000 0.000000 0.000000
		CHANNELS 3 Xrotation Yrotation Zrotation
		JOINT RightUpLeg
		{
			OFFSET -10.205400 -3.823500 0.005500
			CHANNELS 3 Xrotation Yrotation Zrotation
			JOINT RightLeg
			{
				OFFSET -0.708756 -12.982134 0.610632
				CHANNELS 3 Xrotation Yrotation Zrotation
				JOINT RightFoot
				{
					OFFSET 0.708754 -10.717769 -1.945823
					CHANNELS 3 Xrotation Yrotation Zrotation
					JOINT RightToeBase
					{
						OFFSET -0.108140 -7.191069 7.372968
						CHANNELS 3 Xrotation Yrotation Zrotation
						JOINT RightToe_End
						{
							OFFSET -0.070227 0.081735 4.479403
							CHANNELS 3 Xrotation Yrotation Zrotation
							End Site
							{
								OFFSET 0 0 0
							}
						}
					}
				}
			}
		}
	}
	JOINT Spine_virtual
	{
		OFFSET 0.000000 0.000000 0.000000
		CHANNELS 3 Xrotation Yrotation Zrotation
		JOINT Spine
		{
			OFFSET 0.000000 6.876099 0.125700
			CHANNELS 3 Xrotation Yrotation Zrotation
			JOINT Spine1
			{
				OFFSET 0.000000 5.730043 0.104720
				CHANNELS 3 Xrotation Yrotation Zrotation
				JOINT Spine1_split
				{
					OFFSET 0.000000 5.730043 0.104720
					CHANNELS 3 Xrotation Yrotation Zrotation
					JOINT Spine2
					{
						OFFSET 0.000000 5.730043 0.104720
						CHANNELS 3 Xrotation Yrotation Zrotation
						JOINT Neck_virtual
						{
							OFFSET 0.000000 0.000000 0.000000
							CHANNELS 3 Xrotation Yrotation Zrotation
							JOINT Neck
							{
								OFFSET 0.000000 10.314075 0.188496
								CHANNELS 3 Xrotation Yrotation Zrotation
								JOINT Head
								{
									OFFSET 0.000000 7.643700 -2.377400
									CHANNELS 3 Xrotation Yrotation Zrotation
									JOINT HeadTop_End
									{
										OFFSET 0.000000 43.788605 -13.619600
										CHANNELS 3 Xrotation Yrotation Zrotation
										End Site
										{
											OFFSET 0 0 0
										}
									}
								}
							}
						}
						JOINT LeftShoulder_virtual
						{
							OFFSET 0.000000 0.000000 0.000000
							CHANNELS 3 Xrotation Yrotation Zrotation
							JOINT LeftShoulder
							{
								OFFSET 2.196100 4.412489 0.087492
								CHANNELS 3 Xrotation Yrotation Zrotation
								JOINT LeftShoulder_split
								{
									OFFSET 2.196100 4.412489 0.087492
									CHANNELS 3 Xrotation Yrotation Zrotation
									JOINT LeftArm
									{
										OFFSET 8.771219 -2.981674 -0.026999
										CHANNELS 3 Xrotation Yrotation Zrotation
										JOINT LeftForeArm
										{
											OFFSET 8.512804 0.000000 -0.000000
											CHANNELS 3 Xrotation Yrotation Zrotation
											JOINT LeftHand
											{
												OFFSET 18.484802 0.000000 -0.000000
												CHANNELS 3 Xrotation Yrotation Zrotation
												End Site
												{
													OFFSET 0 0 0
												}
											}
										}
									}
								}
							}
						}
						JOINT RightShoulder_virtual
						{
							OFFSET 0.000000 0.000000 0.000000
							CHANNELS 3 Xrotation Yrotation Zrotation
							JOINT RightShoulder
							{
								OFFSET -2.196100 4.412496 0.070690
								CHANNELS 3 Xrotation Yrotation Zrotation
								JOINT RightShoulder_split
								{
									OFFSET -2.196100 4.412496 0.070690
									CHANNELS 3 Xrotation Yrotation Zrotation
									JOINT RightArm
									{
										OFFSET -8.771282 -2.981682 -0.094208
										CHANNELS 3 Xrotation Yrotation Zrotation
										JOINT RightForeArm
										{
											OFFSET -8.494598 0.000000 0.000000
											CHANNELS 3 Xrotation Yrotation Zrotation
											JOINT RightHand
											{
												OFFSET -18.483803 0.000000 0.000001
												CHANNELS 3 Xrotation Yrotation Zrotation
												End Site
												{
													OFFSET 0 0 0
												}
											}
										}
									}
								}
							}
						}
					}
				}
			}
		}
	}
}
MOTION
Frames: 4
Frame Time: 0.03333333
3.146081 27.919395 -1.223017 0.000000 0.000000 0.000000 159.859116 -80.981994 168.540437 8.968797 19.258328 12.609206 35.601640 4.847833 -7.672898 -28.828736 24.322013 -24.938913 -1.594047 0.000032 0.000005 0.000000 0.000000 0.000000 159.859116 -80.981994 168.540437 -65.353661 20.838064 -13.502942 53.007647 -1.109779 -8.597821 2.366570 22.093755 21.141976 -0.013004 0.000011 0.000004 0.000000 0.000000 0.000000 159.859116 -80.981994 168.540437 27.540697 -10.370280 9.926451 23.161363 -3.493216 1.352681 0.000000 0.000000 0.000000 0.000000 0.000000 0.000000 23.166771 -3.536867 1.303664 5.566804 -1.498426 -2.573750 -27.602630 15.614092 -15.598456 0.000000 0.000000 0.000000 23.166771 -3.536867 1.303664 -0.582121 -10.753502 13.082368 0.000000 0.000000 0.000000 15.295862 14.965064 -73.078926 -0.000007 -77.278440 0.000002 0.000000 0.000000 0.000000 23.166771 -3.536867 1.303664 6.979287 20.126740 14.548977 0.000000 0.000000 0.000000 -57.790634 57.846791 49.544304 179.999964 71.252274 -179.999978 0.000000 0.000000 0.000000 
3.137036 27.982628 -1.358442 0.000000 0.000000 0.000000 163.277325 -84.905344 172.269638 6.792094 18.823680 14.654407 37.497605 4.649593 -7.159984 -28.068784 20.714398 -25.545206 -1.594046 0.000031 0.000004 0.000000 0.000000 0.000000 163.277325 -84.905344 172.269638 -62.181803 21.637903 -16.241119 57.320539 -0.510282 -8.471416 -1.918847 18.483083 22.265607 -0.013006 0.000010 0.000003 0.000000 0.000000 0.000000 163.277325 -84.905344 172.269638 27.080040 -10.192649 9.564709 22.828260 -3.476722 1.160355 0.000000 0.000000 0.000000 0.000000 0.000000 0.000000 22.831244 -3.513601 1.117199 5.617731 -1.103829 -3.287021 -24.500420 16.764411 -15.915167 0.000000 0.000000 0.000000 22.831244 -3.513601 1.117199 -0.574405 -9.850090 11.644785 0.000000 0.000000 0.000000 7.953480 23.817334 -68.381491 -0.000110 -83.763008 -0.000142 0.000000 0.000000 0.000000 22.831244 -3.513601 1.117199 6.747075 21.058534 15.296895 0.000000 0.000000 0.000000 -49.806839 49.425875 42.155907 179.999964 69.219009 -179.999964 0.000000 0.000000 0.000000 
3.108272 28.138012 -1.501966 0.000000 0.000000 0.000000 -98.395097 -89.685343 -89.221580 3.388000 17.912253 17.218273 39.697848 4.464944 -6.404750 -27.009329 16.092617 -26.019708 -1.594046 0.000020 0.000003 0.000000 0.000000 0.000000 -98.395097 -89.685343 -89.221580 -57.111344 21.738737 -19.929027 61.292540 0.201520 -8.358470 -6.844269 13.714987 23.451270 -0.013009 0.000010 0.000004 0.000000 0.000000 0.000000 -98.395097 -89.685343 -89.221580 26.166192 -10.085510 9.308896 22.258186 -3.473026 1.011019 0.000000 0.000000 0.000000 0.000000 0.000000 0.000000 22.258241 -3.504557 0.974820 5.582344 -0.609717 -3.490649 -21.431935 18.334335 -15.324474 0.000000 0.000000 0.000000 22.258241 -3.504557 0.974820 -0.520526 -9.531917 10.234641 0.000000 0.000000 0.000000 1.463524 28.835488 -64.955085 179.999814 -87.420254 179.999759 0.000000 0.000000 0.000000 22.258241 -3.504557 0.974820 6.665676 21.639417 15.541462 0.000000 0.000000 0.000000 -46.863793 42.548359 39.774469 179.999964 68.187295 -179.999991 0.000000 0.000000 0.000000 
3.056594 28.316715 -1.644320 0.000000 0.000000 0.000000 -21.341954 -84.342058 -11.912329 -0.371144 16.776420 19.694903 41.514528 4.428672 -5.871956 -25.648663 10.725378 -26.172424 -1.594044 0.000029 0.000004 0.000000 0.000000 0.000000 -21.341954 -84.342058 -11.912329 -51.006972 21.018574 -24.194227 64.501574 0.934147 -7.908307 -11.697282 8.815735 24.257700 -0.013013 0.000011 0.000003 0.000000 0.000000 0.000000 -21.341954 -84.342058 -11.912329 24.879454 -10.211070 8.898499 21.504864 -3.561791 0.743018 0.000000 0.000000 0.000000 0.000000 0.000000 0.000000 21.500290 -3.591411 0.715270 5.405985 0.051953 -3.528797 -18.138626 20.379777 -14.230569 0.000000 0.000000 0.000000 21.500290 -3.591411 0.715270 -0.460497 -9.394468 9.008825 0.000000 0.000000 0.000000 -1.728999 29.114064 -63.687102 -179.999937 -78.356169 -179.999964 0.000000 0.000000 0.000000 21.500290 -3.591411 0.715270 6.805451 22.098828 15.068236 0.000000 0.000000 0.000000 -46.646504 38.030377 40.216499 179.999991 68.071919 179.999978 0.000000 0.000000 0.000000 
